<?xml version="1.0" encoding="UTF-8"?>
<svg id="_レイヤー_2" data-name="レイヤー 2" xmlns="http://www.w3.org/2000/svg" viewBox="0 0 5979.05 1998.86">
  <defs>
    <style>
      .cls-1 {
        fill: #081b42;
      }
    </style>
  </defs>
  <g id="Layer_1" data-name="Layer 1">
    <path class="cls-1" d="M0,1998.86h5013.41c217.7-161.63,329.85-440.67,349.64-701.91,19.79-261.24,52.76-393.2,283.66-492.14,230.9-98.94,383.15-397.46,316.65-804.82-138.53,417.26-623.4,244.09-722.36,554.27-118.74-311.21-827.9-224.42-880.68-501.49-26.38,362.82,178.14,590.98,409.01,688,230.88,97.02,290.25,242.14,204.5,492.83-85.75,250.69-310.04,428.8-877.38,290.27-567.34-138.53-1287-388.7-2025.85-553.89-738.85-165.19-1369.71-46.42-1664.49,158.07C111.32,1332.57,7.42,1543.68,0,1998.86Z"/>
  </g>
</svg>