<?xml version="1.0" encoding="UTF-8"?>
<svg id="_レイヤー_2" data-name="レイヤー 2" xmlns="http://www.w3.org/2000/svg" viewBox="0 0 56 49.79">
  <defs>
    <style>
      .cls-1 {
        fill: #fff;
      }
    </style>
  </defs>
  <g id="Line">
    <path class="cls-1" d="M1,41.79c1.02-.03,2.03.27,2.86.86,2.37,1.5,5.39,1.5,7.77,0,.84-.59,1.84-.89,2.86-.86,1.02-.03,2.03.27,2.86.86,2.37,1.49,5.39,1.49,7.77,0,1.74-1.15,3.99-1.15,5.73,0,2.37,1.49,5.39,1.49,7.77,0,1.74-1.15,4-1.15,5.73,0,2.37,1.52,5.41,1.52,7.78,0,.84-.59,1.84-.89,2.87-.86.55-.01.99-.47.98-1.02-.01-.54-.44-.97-.98-.98-3.53-.06-3.6,1.93-6.76,2-3.15-.07-3.23-2.06-6.76-2-3.08-.04-3.49,1.45-5.86,1.94-.24-4.36-1.25-8.46-1.69-12.77-.69-5.54,1.54-8.8,6.87-11.14,3.15-1.57,6.31-3.44,8.13-6.44,1.91-3.17,2.6-6.94,1.92-10.58-.11-.54-.64-.89-1.18-.78-.38.08-.68.37-.77.74-1.11,6.45-16.78.93-20.51,5.33-.42.52-.37.45-.77,0-2.07-2.08-5.93-2-10.02-1.92-5.82.12-9.7-.05-10.49-3.41-.14-.54-.68-.86-1.22-.73-.37.09-.66.39-.74.76-1.41,7.91,2.87,13.91,10.04,17.02,2.26,1.13,4.24,2.21,5.53,4.02,1.5,2.09,1.55,5.03,1.34,7.12-.44,4.31-1.45,8.41-1.69,12.77-.72-.12-1.4-.39-2-.8-2.37-1.49-5.39-1.49-7.77,0-.84.59-1.84.89-2.86.86-1.02.03-2.03-.27-2.86-.86-1.15-.77-2.5-1.17-3.88-1.14-.55,0-1,.45-1,1s.45,1,1,1ZM16.09,16.03c-5.18-2.31-8.98-6.05-9.18-11.8,2.45,2.13,6.78,2.03,10.73,1.95,4.4.06,9.4-.68,9.34,3.78.02.58.5,1.03,1.08,1.01.26,0,.5-.11.69-.29.19-.19.29-.46.28-.73-.1-.89.18-1.79.78-2.46,1.46-1.48,5.07-1.4,8.56-1.32,3.94.08,8.28.18,10.73-1.95-.21,5.76-3.99,9.49-9.18,11.8-8.88,3.91-8.87,9.71-7.19,18.59.42,2.34.72,4.7.89,7.06-1.83-.44-2.43-1.59-4.61-1.83v-23.54c0-.55-.45-1-1-1s-1,.45-1,1v23.54c-2.18.23-2.8,1.37-4.61,1.83.72-10.3,5.9-20.7-6.3-25.65Z"/>
    <path class="cls-1" d="M1,47.79c1.02-.03,2.03.27,2.86.86,2.37,1.5,5.39,1.5,7.77,0,.84-.59,1.84-.89,2.86-.86,1.02-.03,2.03.27,2.86.86,2.37,1.49,5.39,1.49,7.77,0,1.74-1.15,3.99-1.15,5.73,0,1.15.77,2.5,1.17,3.88,1.14,3.53.06,3.6-1.93,6.75-2,1.02-.03,2.03.27,2.87.86,2.38,1.5,5.4,1.5,7.78,0,.84-.59,1.84-.89,2.87-.86.55,0,1-.45,1-1,0-.55-.45-1-1-1h0c-1.38-.03-2.74.37-3.89,1.14-1.74,1.13-3.99,1.13-5.74,0-2.38-1.49-5.4-1.49-7.77,0-1.74,1.15-3.99,1.15-5.73,0-2.37-1.49-5.39-1.49-7.77,0-.84.59-1.84.89-2.86.86-1.02.03-2.03-.27-2.86-.86-2.37-1.49-5.39-1.49-7.77,0-.84.59-1.84.89-2.86.86-3.15-.07-3.22-2.06-6.75-2-.55,0-.99.46-.98,1.02,0,.54.44.98.98.98Z"/>
  </g>
</svg>